<svg width="160" height="64" viewBox="0 0 160 64" fill="none" xmlns="http://www.w3.org/2000/svg">
<rect x="0.5" y="0.5" width="159" height="63" rx="4.5" stroke="#9747FF" stroke-dasharray="10 5"/>
<path d="M126.872 24.0829C126.523 23.9992 126.165 23.9995 125.758 23.9999L122.161 24C121.634 24 121.18 23.9999 120.805 24.0305C120.41 24.0629 120.016 24.1342 119.638 24.327C119.074 24.6146 118.615 25.0735 118.327 25.638C118.134 26.0164 118.063 26.4096 118.031 26.805C118 27.1795 118 27.6343 118 28.1614V35.8385C118 36.3657 118 36.8204 118.031 37.195C118.063 37.5904 118.134 37.9836 118.327 38.362C118.615 38.9264 119.074 39.3854 119.638 39.673C120.016 39.8658 120.41 39.9371 120.805 39.9694C121.18 40 121.634 40 122.161 40H133.839C134.366 40 134.82 40 135.195 39.9694C135.59 39.9371 135.984 39.8658 136.362 39.673C136.926 39.3854 137.385 38.9264 137.673 38.362C137.866 37.9836 137.937 37.5904 137.969 37.195C138 36.8204 138 36.3657 138 35.8385V30.1614C138 29.6343 138 29.1795 137.969 28.805C137.937 28.4096 137.866 28.0164 137.673 27.638C137.385 27.0735 136.926 26.6146 136.362 26.327C135.984 26.1342 135.59 26.0628 135.195 26.0305C134.82 25.9999 134.366 26 133.839 26L129.414 26L128.585 25.1712C128.298 24.8832 128.045 24.6293 127.739 24.4421C127.471 24.2776 127.178 24.1564 126.872 24.0829Z" fill="#BABDCC"/>
<path d="M78.8719 24.0829C78.5235 23.9992 78.1647 23.9995 77.7578 23.9999L74.1615 24C73.6343 24 73.1795 23.9999 72.805 24.0305C72.4096 24.0629 72.0164 24.1342 71.638 24.327C71.0735 24.6146 70.6146 25.0735 70.327 25.638C70.1342 26.0164 70.0629 26.4096 70.0306 26.805C70 27.1795 70 27.6343 70 28.1614V35.8385C70 36.3657 70 36.8204 70.0306 37.195C70.0629 37.5904 70.1342 37.9836 70.327 38.362C70.6146 38.9264 71.0735 39.3854 71.638 39.673C72.0164 39.8658 72.4096 39.9371 72.805 39.9694C73.1795 40 73.6343 40 74.1614 40H85.8385C86.3656 40 86.8205 40 87.195 39.9694C87.5904 39.9371 87.9836 39.8658 88.362 39.673C88.9265 39.3854 89.3854 38.9264 89.673 38.362C89.8658 37.9836 89.9371 37.5904 89.9694 37.195C90 36.8204 90 36.3657 90 35.8385V30.1614C90 29.6343 90 29.1795 89.9694 28.805C89.9371 28.4096 89.8658 28.0164 89.673 27.638C89.3854 27.0735 88.9265 26.6146 88.362 26.327C87.9836 26.1342 87.5904 26.0628 87.195 26.0305C86.8205 25.9999 86.3657 26 85.8386 26L81.4142 26L80.5855 25.1712C80.298 24.8832 80.0446 24.6293 79.7391 24.4421C79.4707 24.2776 79.178 24.1564 78.8719 24.0829Z" fill="#12131A"/>
<path fill-rule="evenodd" clip-rule="evenodd" d="M30.2243 26.0553C30.0208 26.0064 29.7931 26 29.0118 26H27.8C26.9434 26 26.3611 26.0008 25.911 26.0376C25.4726 26.0734 25.2484 26.1383 25.092 26.218C24.7157 26.4097 24.4097 26.7157 24.218 27.092C24.1383 27.2484 24.0734 27.4726 24.0376 27.911C24.0008 28.3611 24 28.9434 24 29.8V34.2C24 35.0566 24.0008 35.6389 24.0376 36.089C24.0734 36.5274 24.1383 36.7516 24.218 36.908C24.4097 37.2843 24.7157 37.5903 25.092 37.782C25.2484 37.8617 25.4726 37.9266 25.911 37.9625C26.3611 37.9992 26.9434 38 27.8 38H36.2C37.0566 38 37.6389 37.9992 38.089 37.9625C38.5274 37.9266 38.7516 37.8617 38.908 37.782C39.2843 37.5903 39.5903 37.2843 39.782 36.908C39.8617 36.7516 39.9266 36.5274 39.9624 36.089C39.9992 35.6389 40 35.0566 40 34.2V31.8C40 30.9434 39.9992 30.3611 39.9624 29.911C39.9266 29.4726 39.8617 29.2484 39.782 29.092C39.5903 28.7157 39.2843 28.4097 38.908 28.218C38.7516 28.1383 38.5274 28.0734 38.089 28.0376C37.6389 28.0008 37.0566 28 36.2 28H33C32.7348 28 32.4804 27.8946 32.2929 27.7071L31.6988 27.113C31.1463 26.5605 30.9807 26.404 30.8024 26.2947C30.6234 26.1851 30.4283 26.1043 30.2243 26.0553ZM29.1137 24C29.7487 23.9997 30.2284 23.9994 30.6911 24.1105C31.0993 24.2085 31.4895 24.3701 31.8474 24.5894C32.2531 24.8381 32.5922 25.1775 33.041 25.6267C33.0647 25.6504 33.0887 25.6745 33.113 25.6988L33.4142 26L36.2413 26C37.0463 26 37.7106 26 38.2518 26.0442C38.8139 26.0901 39.3306 26.1887 39.816 26.436C40.5686 26.8195 41.1805 27.4314 41.564 28.184C41.8113 28.6694 41.9099 29.1861 41.9558 29.7482C42 30.2894 42 30.9537 42 31.7587V34.2413C42 35.0463 42 35.7106 41.9558 36.2518C41.9099 36.8139 41.8113 37.3306 41.564 37.816C41.1805 38.5686 40.5686 39.1805 39.816 39.564C39.3306 39.8113 38.8139 39.9099 38.2518 39.9558C37.7106 40 37.0463 40 36.2413 40H27.7587C26.9537 40 26.2894 40 25.7482 39.9558C25.1861 39.9099 24.6694 39.8113 24.184 39.564C23.4314 39.1805 22.8195 38.5686 22.436 37.816C22.1887 37.3306 22.0901 36.8139 22.0442 36.2518C22 35.7106 22 35.0463 22 34.2413V29.7587C22 28.9537 22 28.2894 22.0442 27.7482C22.0901 27.1861 22.1887 26.6694 22.436 26.184C22.8195 25.4314 23.4314 24.8195 24.184 24.436C24.6694 24.1887 25.1861 24.0901 25.7482 24.0442C26.2894 24 26.9537 24 27.7587 24L29.0118 24C29.0462 24 29.0801 24 29.1137 24Z" fill="#12131A"/>
</svg>
